<svg xmlns="http://www.w3.org/2000/svg" xmlns:xlink="http://www.w3.org/1999/xlink" xmlns:v="http://vecta.io" width="290" height="280" viewBox="0 0 290 280" ><style><![CDATA[svg{stroke:#000;stroke-linecap:round;stroke-linejoin:round;fill:#fff;fill-rule:evenodd;font-family:Roboto;font-size:14px;text-anchor:middle}svg text{stroke:none}]]></style><g transform="translate(10.5 12.94)"><g transform="translate(155.9 104.93) rotate(340 18.27 31.26)"><path d="M 36.54 62.52 L 0 41.68 L 1e-13 1e-13 L 36.54 20.84 L 36.54 62.52" fill="#ffe082" stroke="none"/></g><g transform="translate(105.4 127.36) rotate(340 36.54 20.84)"><path d="M 36.54 0 L 73.09 20.84 L 36.54 41.68 L 0 20.84 L 36.54 0" fill="#ffd54f" stroke="none"/></g><g transform="translate(151.53 140.07) rotate(340 18.27 31.26)"><path d="M 36.54 0 L 36.54 41.68 L 0 62.52 L 0 20.84 L 36.54 0" fill="#ffc107" stroke="none"/></g><g transform="translate(117.2 152.57) rotate(340 18.27 31.26)"><path d="M 36.54 62.52 L 0 41.68 L 1e-13 1e-13 L 36.54 20.84 L 36.54 62.52" fill="#ffecb3" stroke="none"/></g><g transform="translate(61.95 177.97) rotate(340 36.54 20.84)"><path d="M 36.54 0 L 73.09 20.84 L 36.54 41.68 L 0 20.84 L 36.54 0" fill="#ffca28" stroke="none"/></g><g transform="translate(108.08 190.68) rotate(340 18.27 31.26)"><path d="M 36.54 0 L 36.54 41.68 L 0 62.52 L 0 20.84 L 36.54 0" fill="#ffa000" stroke="none"/></g><g transform="translate(73.74 203.18) rotate(340 18.27 31.26)"><path d="M 36.54 62.52 L 0 41.68 L 1e-13 1e-13 L 36.54 20.84 L 36.54 62.52" fill="#ffe082" stroke="none"/></g><g transform="translate(40.56 116.24) rotate(340 36.54 20.84)"><path d="M 36.54 0 L 73.09 20.84 L 36.54 41.68 L 0 20.84 L 36.54 0" fill="#ffca28" stroke="none"/></g><g transform="translate(86.69 128.95) rotate(340 18.27 31.26)"><path d="M 36.54 0 L 36.54 41.68 L 0 62.52 L 0 20.84 L 36.54 0" fill="#ffb300" stroke="none"/></g><g transform="translate(52.36 141.45) rotate(340 18.27 31.26)"><path d="M 36.54 62.52 L 0 41.68 L 1e-13 1e-13 L 36.54 20.84 L 36.54 62.52" fill="#ffecb3" stroke="none"/></g><g transform="translate(19.18 57.49) rotate(340 36.54 20.84)"><path d="M 36.54 0 L 73.09 20.84 L 36.54 41.68 L 0 20.84 L 36.54 0" fill="#ffca28" stroke="none"/></g><g transform="translate(65.31 70.2) rotate(340 18.27 31.26)"><path d="M 36.54 0 L 36.54 41.68 L 0 62.52 L 0 20.84 L 36.54 0" fill="#ffc107" stroke="none"/></g><g transform="translate(30.97 82.7) rotate(340 18.27 31.26)"><path d="M 36.54 62.52 L 0 41.68 L 1e-13 1e-13 L 36.54 20.84 L 36.54 62.52" fill="#ffecb3" stroke="none"/></g><g transform="translate(-2.2 -1.26) rotate(340 36.54 20.84)"><path d="M 36.54 0 L 73.09 20.84 L 36.54 41.68 L 0 20.84 L 36.54 0" fill="#ffc107" stroke="none"/></g><g transform="translate(43.93 11.45) rotate(340 18.27 31.26)"><path d="M 36.54 0 L 36.54 41.68 L 0 62.52 L 0 20.84 L 36.54 0" fill="#ffa000" stroke="none"/></g><g transform="translate(9.59 23.95) rotate(340 18.27 31.26)"><path d="M 36.54 62.52 L 0 41.68 L 1e-13 1e-13 L 36.54 20.84 L 36.54 62.52" fill="#ffe082" stroke="none"/></g><g transform="translate(58.27 6.22) rotate(340 36.54 20.84)"><path d="M 36.54 0 L 73.09 20.84 L 36.54 41.68 L 0 20.84 L 36.54 0" fill="#ffca28" stroke="none"/></g><g transform="translate(104.41 18.93) rotate(340 18.27 31.26)"><path d="M 36.54 0 L 36.54 41.68 L 0 62.52 L 0 20.84 L 36.54 0" fill="#ffb300" stroke="none"/></g><g transform="translate(70.07 31.43) rotate(340 18.27 31.26)"><path d="M 36.54 62.52 L 0 41.68 L 1e-13 1e-13 L 36.54 20.84 L 36.54 62.52" fill="#ffecb3" stroke="none"/></g><g transform="translate(120.89 14.49) rotate(340 36.54 20.84)"><path d="M 36.54 0 L 73.09 20.84 L 36.54 41.68 L 0 20.84 L 36.54 0" fill="#ffca28" stroke="none"/></g><g transform="translate(167.02 27.2) rotate(340 18.27 31.26)"><path d="M 36.54 0 L 36.54 41.68 L 0 62.52 L 0 20.84 L 36.54 0" fill="#ffc107" stroke="none"/></g><g transform="translate(132.69 39.7) rotate(340 18.27 31.26)"><path d="M 36.54 62.52 L 0 41.68 L 1e-13 1e-13 L 36.54 20.84 L 36.54 62.52" fill="#ffe082" stroke="none"/></g><g transform="translate(185.78 28.98) rotate(340 36.54 20.84)"><path d="M 36.54 0 L 73.09 20.84 L 36.54 41.68 L 0 20.84 L 36.54 0" fill="#ffd54f" stroke="none"/></g><g transform="translate(231.92 41.69) rotate(340 18.27 31.26)"><path d="M 36.54 0 L 36.54 41.68 L 0 62.52 L 0 20.84 L 36.54 0" fill="#ffa000" stroke="none"/></g><g transform="translate(197.58 54.18) rotate(340 18.27 31.26)"><path d="M 36.54 62.52 L 0 41.68 L 1e-13 1e-13 L 36.54 20.84 L 36.54 62.52" fill="#ffe082" stroke="none"/></g><g transform="translate(144.1 79.72) rotate(340 36.54 20.84)"><path d="M 36.54 0 L 73.09 20.84 L 36.54 41.68 L 0 20.84 L 36.54 0" fill="#ffd54f" stroke="none"/></g><g transform="translate(190.24 92.43) rotate(340 18.27 31.26)"><path d="M 36.54 0 L 36.54 41.68 L 0 62.52 L 0 20.84 L 36.54 0" fill="#ffb300" stroke="none"/></g></g></svg>